<?xml version="1.0" encoding="iso-8859-1"?>
<!-- Generator: Adobe Illustrator 19.0.0, SVG Export Plug-In . SVG Version: 6.00 Build 0)  -->
<svg xmlns="http://www.w3.org/2000/svg" xmlns:xlink="http://www.w3.org/1999/xlink" version="1.1" id="Layer_1" x="0px" y="0px" viewBox="0 0 462.111 462.111" style="enable-background:new 0 0 462.111 462.111;" xml:space="preserve" width="512" height="512">
<g>
	<path style="fill:#9AD14B;" d="M454.568,311.104c-0.7,10.73-9.93,18.93-20.68,18.93h-20.28c-6.57-95.1-85.79-170.2-182.55-170.2   c-25.83,0-50.42,5.35-72.7,15.01c-61.19,26.52-105.04,85.48-109.86,155.19h-20.27c-10.76,0-19.99-8.2-20.69-18.93   c-0.08-1.23-0.04-2.44,0.15-3.65c1.79-11.44,16.41-19.81,19.94-30.73c3.56-10.97-3.38-26.33,1.88-36.6   c5.21-10.21,21.71-13.61,28.54-22.97c6.73-9.22,4.9-25.97,13.13-34.2s24.98-6.4,34.21-13.13c9.36-6.83,12.75-23.33,22.97-28.55   c10.26-5.24,25.62,1.68,36.59-1.86c2.48-0.81,4.83-2.18,7.12-3.86c7.76-5.67,14.78-14.71,23.62-16.09   c11.28-1.77,23.73,9.58,35.37,9.58s24.09-11.35,35.37-9.58c11.44,1.79,19.82,16.41,30.74,19.95c10.97,3.54,26.32-3.38,36.59,1.86   c10.22,5.22,13.62,21.72,22.98,28.55c9.22,6.73,25.97,4.9,34.2,13.13s6.4,24.98,13.13,34.2c6.83,9.36,23.33,12.76,28.55,22.97   c5.24,10.27-1.68,25.63,1.86,36.6c3.54,10.92,18.16,19.29,19.95,30.73C454.608,308.664,454.648,309.874,454.568,311.104z"/>
	<path style="fill:#F7B239;" d="M48.498,330.034c6.57-95.1,85.79-170.2,182.56-170.2c96.76,0,175.98,75.1,182.55,170.2   c0.29,4.23,0.44,8.5,0.44,12.8H48.058C48.058,338.534,48.208,334.264,48.498,330.034z"/>
	<path style="fill:#90BC42;" d="M172.068,135.554l-13.71,39.29c-61.19,26.52-105.04,85.48-109.86,155.19h-20.27   c-10.76,0-19.99-8.2-20.69-18.93c-0.08-1.23-0.04-2.44,0.15-3.65c1.79-11.44,16.41-19.81,19.94-30.73   c3.56-10.97-3.38-26.33,1.88-36.6c5.21-10.21,21.71-13.61,28.54-22.97c6.73-9.22,4.9-25.97,13.13-34.2s24.98-6.4,34.21-13.13   c9.36-6.83,12.75-23.33,22.97-28.55c10.26-5.24,25.62,1.68,36.59-1.86C167.429,138.604,169.778,137.234,172.068,135.554z"/>
	<path style="fill:#E09B2D;" d="M252.056,161.037c-6.891-0.787-13.896-1.203-20.998-1.203c-96.77,0-175.99,75.1-182.56,170.2   c-0.29,4.23-0.44,8.5-0.44,12.8h41.998c0-4.3,0.15-8.57,0.44-12.8C96.584,241.915,165.052,170.978,252.056,161.037z"/>
	<path style="fill:#FFFFFF;" d="M389.401,327.335c-3.669,0-6.876-2.695-7.414-6.434c-4.89-34.003-21.471-65.744-46.688-89.375   c-19.781-18.536-44.133-31.478-70.421-37.427c-4.04-0.914-6.574-4.93-5.66-8.97c0.913-4.04,4.922-6.575,8.971-5.66   c28.888,6.537,55.641,20.752,77.366,41.111c27.695,25.952,45.906,60.821,51.279,98.185c0.59,4.1-2.256,7.901-6.356,8.491   C390.117,327.31,389.757,327.335,389.401,327.335z"/>
	<circle style="fill:#FFFFFF;" cx="238.499" cy="183.165" r="7.5"/>
	<g>
		<path style="fill:#333333;" d="M158.714,226.139c-16.021,0-29.055,13.034-29.055,29.055c0,16.021,13.034,29.054,29.055,29.054    c4.143,0,7.5-3.358,7.5-7.5s-3.357-7.5-7.5-7.5c-7.75,0-14.055-6.305-14.055-14.054c0-7.75,6.305-14.055,14.055-14.055    s14.055,6.305,14.055,14.055c0,4.142,3.357,7.5,7.5,7.5s7.5-3.358,7.5-7.5C187.768,239.173,174.734,226.139,158.714,226.139z"/>
		<path style="fill:#333333;" d="M298.481,233.935c-13.348,0-24.206,10.858-24.206,24.205c0,4.142,3.357,7.5,7.5,7.5    s7.5-3.358,7.5-7.5c0-5.076,4.13-9.205,9.206-9.205s9.205,4.129,9.205,9.205c0,5.076-4.129,9.206-9.205,9.206    c-4.143,0-7.5,3.358-7.5,7.5s3.357,7.5,7.5,7.5c13.347,0,24.205-10.858,24.205-24.206    C322.686,244.793,311.828,233.935,298.481,233.935z"/>
		<path style="fill:#333333;" d="M461.836,306.3c-1.302-8.34-7.047-14.807-12.117-20.513c-3.576-4.026-6.955-7.828-8.102-11.368    c-1.157-3.583-0.65-8.667-0.114-14.049c0.757-7.581,1.613-16.173-2.208-23.655c-3.797-7.434-11.23-11.763-17.788-15.583    c-4.699-2.737-9.138-5.322-11.382-8.399c-2.174-2.978-3.26-7.932-4.408-13.176c-1.635-7.462-3.488-15.919-9.476-21.914    c-5.987-5.981-14.445-7.833-21.907-9.468c-5.244-1.149-10.198-2.234-13.179-4.411c-3.074-2.242-5.658-6.678-8.395-11.375    c-3.822-6.56-8.154-13.996-15.594-17.793c-7.481-3.822-16.071-2.964-23.648-2.208c-5.382,0.536-10.465,1.042-14.041-0.112    c-3.546-1.149-7.35-4.527-11.378-8.104c-5.708-5.069-12.178-10.814-20.512-12.115c-8.19-1.282-16.035,2.166-22.953,5.21    c-5.004,2.201-9.729,4.281-13.575,4.281c-3.845,0-8.569-2.079-13.572-4.28c-6.92-3.045-14.767-6.499-22.959-5.211    c-8.34,1.301-14.81,7.047-20.518,12.116c-4.027,3.577-7.831,6.955-11.373,8.103c-3.577,1.158-8.659,0.65-14.04,0.114    c-7.579-0.754-16.173-1.613-23.653,2.208c-7.435,3.797-11.764,11.23-15.583,17.788c-2.737,4.699-5.322,9.138-8.396,11.38    c-2.983,2.175-7.938,3.261-13.183,4.41c-7.464,1.635-15.923,3.488-21.907,9.473c-5.987,5.988-7.841,14.446-9.476,21.908    c-1.148,5.244-2.233,10.197-4.415,13.182c-2.243,3.075-6.68,5.66-11.377,8.396c-6.556,3.82-13.986,8.149-17.78,15.579    c-3.828,7.482-2.971,16.074-2.215,23.655c0.536,5.382,1.043,10.466-0.119,14.053c-1.146,3.545-4.525,7.349-8.103,11.376    c-5.066,5.703-10.808,12.166-12.116,20.506c-0.264,1.696-0.338,3.477-0.22,5.293c0.953,14.543,13.327,25.936,28.172,25.936h12.412    c-0.048,1.762-0.077,3.528-0.077,5.301c0,4.142,3.357,7.5,7.5,7.5h365.991c4.143,0,7.5-3.358,7.5-7.5    c0-1.773-0.029-3.539-0.077-5.301h12.409c14.845,0,27.219-11.393,28.17-25.932C462.175,309.784,462.101,308.002,461.836,306.3z     M55.72,335.332c3.938-93.307,81.079-167.996,175.337-167.996c94.259,0,171.399,74.688,175.338,167.996H55.72z M447.087,310.615    c-0.437,6.682-6.236,11.916-13.202,11.916H420.47c-10.167-95.53-91.23-170.195-189.413-170.195    c-98.182,0-179.245,74.665-189.412,170.195H28.226c-6.966,0-12.766-5.234-13.203-11.915c-0.048-0.729-0.024-1.385,0.071-1.998    c0.625-3.985,4.455-8.296,8.51-12.86c4.448-5.007,9.048-10.185,11.16-16.721c2.128-6.568,1.439-13.478,0.773-20.159    c-0.604-6.059-1.175-11.782,0.646-15.34c1.794-3.512,6.739-6.394,11.976-9.444c5.825-3.394,11.85-6.904,15.939-12.512    c4.043-5.53,5.522-12.285,6.953-18.817c1.311-5.98,2.548-11.629,5.431-14.511c2.878-2.878,8.528-4.116,14.51-5.427    c6.529-1.43,13.28-2.909,18.811-6.943c5.616-4.095,9.126-10.122,12.521-15.95c3.05-5.238,5.932-10.185,9.443-11.979    c3.555-1.816,9.279-1.246,15.343-0.641c6.676,0.667,13.581,1.356,20.147-0.769c6.534-2.117,11.709-6.713,16.715-11.158    c4.568-4.057,8.883-7.89,12.874-8.512c3.848-0.604,9.075,1.69,14.601,4.122c6.202,2.729,12.615,5.55,19.613,5.55    c7,0,13.414-2.822,19.616-5.551c5.521-2.43,10.736-4.726,14.595-4.12c3.985,0.622,8.301,4.454,12.869,8.511    c5.005,4.445,10.181,9.042,16.72,11.16c6.565,2.121,13.471,1.434,20.147,0.767c6.06-0.604,11.783-1.175,15.34,0.642    c3.517,1.795,6.4,6.745,9.453,11.984c3.394,5.826,6.903,11.85,12.514,15.942c5.528,4.036,12.28,5.515,18.811,6.946    c5.982,1.311,11.634,2.549,14.511,5.423c2.881,2.883,4.118,8.534,5.43,14.517c1.43,6.53,2.909,13.282,6.943,18.808    c4.096,5.615,10.122,9.125,15.95,12.52c5.238,3.05,10.185,5.932,11.979,9.443c1.816,3.556,1.245,9.282,0.641,15.344    c-0.666,6.679-1.354,13.585,0.769,20.155c2.117,6.535,6.714,11.709,11.16,16.713c4.057,4.565,7.888,8.878,8.509,12.86    C447.112,309.231,447.136,309.885,447.087,310.615z"/>
		<circle style="fill:#333333;" cx="340.148" cy="299.234" r="7.5"/>
		<circle style="fill:#333333;" cx="251.299" cy="300.114" r="7.5"/>
		<circle style="fill:#333333;" cx="118.448" cy="308.914" r="7.5"/>
		<circle style="fill:#333333;" cx="230.368" cy="232.534" r="7.5"/>
	</g>
</g>















</svg>
